<svg xmlns="http://www.w3.org/2000/svg" xmlns:xlink="http://www.w3.org/1999/xlink" width="27" height="22" viewBox="0 0 27 22">
  <defs>
    <rect id="rect-1" width="27" height="22" x="0" y="0"/>
    <mask id="mask-2" maskContentUnits="userSpaceOnUse" maskUnits="userSpaceOnUse">
      <rect width="27" height="22" x="0" y="0" fill="black"/>
      <use fill="white" xlink:href="#rect-1"/>
    </mask>
  </defs>
  <g>
    <use fill="none" xlink:href="#rect-1"/>
    <g mask="url(#mask-2)">
      <path fill="rgb(255,0,0)" fill-rule="evenodd" d="M8.72690625 10.53378906c-1.5136875.44902344-2.52914062 1.7703125-2.42704687 3.18398438.4809375-.5465625 1.21542187-1.01835938 2.10515625-1.32859375l.32189062-1.85539063z"/>
      <path fill="rgb(255,0,0)" fill-rule="evenodd" d="M4.04198437 12.67578125L2.703375 4.96246094c-.01223438-.06960938.0118125-.11257813.010125-.11386719 2.43675-1.37757812 5.194125-2.10589844 7.97385937-2.10589844.06792188 0 .13626563.00730469.20460938.00816407.58851562-.57878907 1.33860937-.98097657 2.17645312-1.1171875.79692188-.12976563 1.60523438-.19550782 2.41228125-.22859375C15.05925.80566406 14.44795312.3639453 13.71853125.24492188 12.70982812.08121094 11.6960625 0 10.6869375 0 7.45284375 0 4.26178125.83445313 1.400625 2.45179688.38095312 3.0284375-.165375 4.2315625.04429687 5.43898438l1.33860938 7.7133203c.60032812 3.45984376 5.75142187 6.105 8.62523437 6.105.15145313 0 .28476563-.01976562.42229688-.034375-.570375-.73390624-1.22090625-1.739375-1.66640625-2.90382812-2.00854688-.55773437-4.47440625-2.21804687-4.72204688-3.64332031z"/>
      <path fill="rgb(255,0,0)" fill-rule="evenodd" d="M8.157375 6.76929687c-.03079687-.17703125-.09407812-.33816406-.17170312-.48984375-.34804688.38285157-.87201563.67675782-1.4900625.7871875-.61804688.11085938-1.20951563.0171875-1.6655625-.22214843-.0219375.16929687-.027.34289062.00379687.51992187.162.93242188 1.03696875 1.55503906 1.95496875 1.39089844.91757813-.16414063 1.5305625-1.05359375 1.3685625-1.98601563z"/>
      <path fill="rgb(255,255,255)" fill-rule="evenodd" d="M25.599375 5.19492188C21.84553125 3.073125 17.52342188 2.29839844 13.28146875 2.98847656c-1.15214062.18734375-2.0705625 1.12835938-2.2798125 2.33578125l-1.33860937 7.71332032c-.64926563 3.74042968 4.019625 8.43347656 6.67870312 8.9095703 2.65907813.47652345 8.62607813-2.31128905 9.27534375-6.05171874l1.33860938-7.71332031c.20967187-1.20785157-.33665625-2.41097657-1.35632813-2.9871875z"/>
      <path fill="rgb(0,0,0)" fill-rule="evenodd" d="M14.0720625 9.35429687c.162-.93242187 1.03696875-1.55503906 1.95496875-1.39046875.918.16457032 1.5305625 1.05359375 1.36898438 1.98601563-.03079688.17703125-.09407813.33816406-.17170313.48984375-.34804687-.38285156-.87201562-.67675781-1.4900625-.7871875-.61804687-.11085938-1.20951562-.0171875-1.6655625.22214844-.02235937-.16972657-.02742187-.34332032.003375-.52035157z"/>
      <path fill="rgb(0,0,0)" fill-rule="evenodd" d="M17.04501563 17.89476563c-2.349-.42066407-3.945375-2.54675782-3.756375-4.85117188.8690625 1.09742188 2.37135937 1.98386719 4.19723437 2.31085938 1.825875.32699218 3.53615625.01589843 4.72204688-.71328125-.59821875 2.23179687-2.81432813 3.6742578-5.16290625 3.25359375z"/>
      <path fill="rgb(0,0,0)" fill-rule="evenodd" d="M22.54204688 11.391875c-.34804688-.38285156-.8724375-.67675781-1.49048438-.7871875-.61804687-.11085937-1.20951562-.0171875-1.6655625.22214844-.0219375-.16929688-.027-.34289063.00379688-.51992188.162-.93242187 1.03696875-1.55503906 1.95496875-1.39089843.91757812.1645703 1.5305625 1.05359375 1.36898437 1.98601562-.03079687.17746094-.09407812.33859375-.17170312.48984375z"/>
    </g>
  </g>
</svg>
