<svg xmlns="http://www.w3.org/2000/svg" xmlns:xlink="http://www.w3.org/1999/xlink" width="17" height="24" viewBox="0 0 17 24">
  <defs>
    <rect id="rect-1" width="17" height="24" x="0" y="0"/>
    <mask id="mask-2" maskContentUnits="userSpaceOnUse" maskUnits="userSpaceOnUse">
      <rect width="17" height="24" x="0" y="0" fill="black"/>
      <use fill="white" xlink:href="#rect-1"/>
    </mask>
    <path id="path-3" fill-rule="evenodd" d="M7.62644792 23.51578125C1.19398437 13.64207812 0 12.62873437 0 9c0-4.97057813 3.8055651-9 8.5-9S17 4.02942187 17 9c0 3.62873437-1.19398438 4.64207812-7.62644792 14.51578125-.4221224.64565625-1.32502604.64560937-1.74710416 0z"/>
    <mask id="mask-4" x="0" y="0" maskContentUnits="userSpaceOnUse" maskUnits="userSpaceOnUse">
      <rect width="17" height="24" x="0" y="0" fill="black"/>
      <use fill="white" xlink:href="#path-3"/>
    </mask>
    <path id="path-5" fill-rule="evenodd" d="M8.5 12.75c1.95601823 0 3.54166667-1.67892188 3.54166667-3.75S10.45601823 5.25 8.5 5.25C6.54398177 5.25 4.95833333 6.92892188 4.95833333 9S6.54398177 12.75 8.5 12.75z"/>
    <mask id="mask-6" x="0" y="0" maskContentUnits="userSpaceOnUse" maskUnits="userSpaceOnUse">
      <rect width="17" height="24" x="0" y="0" fill="black"/>
      <use fill="white" xlink:href="#path-5"/>
    </mask>
  </defs>
  <g>
    <use fill="none" xlink:href="#rect-1"/>
    <g mask="url(#mask-2)">
      <use fill-opacity="0" stroke="rgb(255,0,0)" stroke-linecap="butt" stroke-linejoin="miter" stroke-width="4" mask="url(#mask-4)" xlink:href="#path-3"/>
      <use fill-opacity="0" stroke="rgb(255,255,255)" stroke-linecap="butt" stroke-linejoin="miter" stroke-width="4" mask="url(#mask-6)" xlink:href="#path-5"/>
    </g>
  </g>
</svg>
