<svg xmlns="http://www.w3.org/2000/svg" xmlns:xlink="http://www.w3.org/1999/xlink" width="34" height="39" viewBox="0 0 34 39">
  <defs>
    <rect id="rect-1" width="34" height="39" x="0" y="0"/>
    <mask id="mask-2" maskContentUnits="userSpaceOnUse" maskUnits="userSpaceOnUse">
      <rect width="34" height="39" x="0" y="0" fill="black"/>
      <use fill="white" xlink:href="#rect-1"/>
    </mask>
  </defs>
  <g>
    <use fill="none" xlink:href="#rect-1"/>
    <g mask="url(#mask-2)">
      <path fill="rgb(255,0,0)" fill-rule="evenodd" d="M1.21429443 10.0546875h31.57141114C33.45639038 10.0546875 34 9.50906754 34 8.8359375v-3.046875c0-.67313004-.54360962-1.21875-1.21429443-1.21875H1.21429443C.54360962 4.5703125 0 5.11593246 0 5.7890625v3.046875c0 .67313004.54360962 1.21875 1.21429443 1.21875zm0 12.1875h31.57141114c.67068481 0 1.21429443-.54561996 1.21429443-1.21875v-3.046875c0-.67313004-.54360962-1.21875-1.21429443-1.21875H1.21429443C.54360962 16.7578125 0 17.30343246 0 17.9765625v3.046875c0 .67313004.54360962 1.21875 1.21429443 1.21875zm31.57141114 12.1875H1.21429443C.54360962 34.4296875 0 33.88406754 0 33.2109375v-3.046875c0-.67313004.54360962-1.21875 1.21429443-1.21875h31.57141114c.67068481 0 1.21429443.54561996 1.21429443 1.21875v3.046875c0 .67313004-.54360962 1.21875-1.21429443 1.21875z"/>
    </g>
  </g>
</svg>
