<svg xmlns="http://www.w3.org/2000/svg" xmlns:xlink="http://www.w3.org/1999/xlink" width="26" height="26" viewBox="0 0 26 26">
  <defs>
    <rect id="rect-1" width="26" height="26" x="0" y="0"/>
    <mask id="mask-2" maskContentUnits="userSpaceOnUse" maskUnits="userSpaceOnUse">
      <rect width="26" height="26" x="0" y="0" fill="black"/>
      <use fill="white" xlink:href="#rect-1"/>
    </mask>
    <path id="path-3" fill-rule="evenodd" d="M1.625 22.75c0 .89882812.72617187 1.625 1.625 1.625h19.5c.89882812 0 1.625-.72617188 1.625-1.625V8.125H1.625V22.75z"/>
    <mask id="mask-4" x="0" y="0" maskContentUnits="userSpaceOnUse" maskUnits="userSpaceOnUse">
      <rect width="26" height="26" x="0" y="0" fill="black"/>
      <use fill="white" xlink:href="#path-3"/>
    </mask>
    <path id="path-5" fill-rule="evenodd" d="M7 11.984375C7 11.44296875 7.47460938 11 8.0546875 11h9.140625c.58007813 0 1.0546875.44296875 1.0546875.984375v.65625c0 .54140625-.47460938.984375-1.0546875.984375h-9.140625C7.47460937 13.625 7 13.18203125 7 12.640625v-.65625z"/>
    <mask id="mask-6" x="0" y="0" maskContentUnits="userSpaceOnUse" maskUnits="userSpaceOnUse">
      <rect width="26" height="26" x="0" y="0" fill="black"/>
      <use fill="white" xlink:href="#path-5"/>
    </mask>
    <path id="path-7" fill-rule="evenodd" d="M24.375 1.625H1.625C.72617188 1.625 0 2.35117187 0 3.25v2.4375C0 6.134375.365625 6.5.8125 6.5h24.375c.446875 0 .8125-.365625.8125-.8125V3.25c0-.89882813-.72617188-1.625-1.625-1.625z"/>
    <mask id="mask-8" x="0" y="0" maskContentUnits="userSpaceOnUse" maskUnits="userSpaceOnUse">
      <rect width="26" height="26" x="0" y="0" fill="black"/>
      <use fill="white" xlink:href="#path-7"/>
    </mask>
  </defs>
  <g>
    <use fill="none" xlink:href="#rect-1"/>
    <g mask="url(#mask-2)">
      <use fill-opacity="0" stroke="rgb(255,255,255)" stroke-linecap="butt" stroke-linejoin="miter" stroke-width="2" mask="url(#mask-4)" xlink:href="#path-3"/>
      <use fill-opacity="0" stroke="rgb(255,255,255)" stroke-linecap="butt" stroke-linejoin="miter" stroke-width="2" mask="url(#mask-6)" xlink:href="#path-5"/>
      <use fill-opacity="0" stroke="rgb(255,0,0)" stroke-linecap="butt" stroke-linejoin="miter" stroke-width="2" mask="url(#mask-8)" xlink:href="#path-7"/>
    </g>
  </g>
</svg>
