<svg xmlns="http://www.w3.org/2000/svg" xmlns:xlink="http://www.w3.org/1999/xlink" width="26" height="26" viewBox="0 0 26 26">
  <defs>
    <rect id="rect-1" width="26" height="26" x="0" y="0"/>
    <mask id="mask-2" maskContentUnits="userSpaceOnUse" maskUnits="userSpaceOnUse">
      <rect width="26" height="26" x="0" y="0" fill="black"/>
      <use fill="white" xlink:href="#rect-1"/>
    </mask>
    <path id="path-3" fill-rule="evenodd" d="M7.875 9.25C10.15316772 9.25 12 7.40318298 12 5.12501526 12 2.84008789 10.1598816.99996948 7.87496948 1 5.59680176 1.00001526 3.75 2.84681702 3.75 5.125c0 .45166016.07284546.88626099.20697021 1.29299927L.1647339 10.21022034C.05926514 10.3157196 0 10.45880127 0 10.60798645V12.4375C0 12.74815369.25183105 13 .5625 13h2.625c.31066895 0 .5625-.25184631.5625-.5625V11.5h.9375c.31066895 0 .5625-.25184631.5625-.5625V10h.872406c.16067505 0 .3136902-.06871033.42044068-.188797l.56277466-.63313293C7.35491944 9.22509766 7.61203003 9.25 7.875 9.25zm0-3c-.6213379 0-1.125-.50367737-1.125-1.125S7.2536621 4 7.875 4 9 4.50367737 9 5.125 8.4963379 6.25 7.875 6.25z"/>
    <mask id="mask-4" x="0" y="0" maskContentUnits="userSpaceOnUse" maskUnits="userSpaceOnUse">
      <rect width="26" height="26" x="0" y="0" fill="black"/>
      <use fill="white" xlink:href="#path-3"/>
    </mask>
    <path id="path-5" fill-rule="evenodd" d="M18.78125 19.4375C22.7680664 19.4375 26 16.20558167 26 12.21878052 26 8.22016907 22.77978516 4.99995422 18.78121948 5 14.79440308 5.00003052 11.5625 8.23194885 11.5625 12.21875c0 .79040527.12747192 1.55096436.36221313 2.26274109l-6.63641357 6.63641357C5.10372925 21.30252076 5 21.55291748 5 21.8139801v3.2016449C5 25.5592804 5.44070435 26 5.984375 26h4.59375c.54367065 0 .984375-.4407196.984375-.984375V23.375h1.640625c.54367065 0 .984375-.4407196.984375-.984375V20.75h1.5267334c.28115845 0 .54891968-.120224.73571777-.3303833l.98486328-1.10800171c.43630982.08232117.88623047.12588501 1.34643555.12588501zm1.16107178-6.41105652c-1.0873108 0-1.96875-.88142395-1.96875-1.96875 0-1.08732605.8814392-1.96875 1.96875-1.96875 1.08731079 0 1.96875.88142395 1.96875 1.96875 0 1.08732605-.88143921 1.96875-1.96875 1.96875z"/>
    <mask id="mask-6" x="0" y="0" maskContentUnits="userSpaceOnUse" maskUnits="userSpaceOnUse">
      <rect width="26" height="26" x="0" y="0" fill="black"/>
      <use fill="white" xlink:href="#path-5"/>
    </mask>
  </defs>
  <g>
    <use fill="none" xlink:href="#rect-1"/>
    <g mask="url(#mask-2)">
      <use fill-opacity="0" stroke="rgb(255,0,0)" stroke-linecap="butt" stroke-linejoin="miter" stroke-width="2" mask="url(#mask-4)" transform="rotate(-89.999903 6 7)" xlink:href="#path-3"/>
      <use fill-opacity="0" stroke="rgb(255,255,255)" stroke-linecap="butt" stroke-linejoin="miter" stroke-width="2" mask="url(#mask-6)" xlink:href="#path-5"/>
    </g>
  </g>
</svg>
