<svg xmlns="http://www.w3.org/2000/svg" xmlns:xlink="http://www.w3.org/1999/xlink" width="23" height="23" viewBox="0 0 23 23">
  <defs>
    <rect id="rect-1" width="23" height="23" x="0" y="0"/>
    <mask id="mask-2" maskContentUnits="userSpaceOnUse" maskUnits="userSpaceOnUse">
      <rect width="23" height="23" x="0" y="0" fill="black"/>
      <use fill="white" xlink:href="#rect-1"/>
    </mask>
    <path id="path-3" fill-rule="evenodd" d="M11.6796875 0C5.42343463 0 .359375 5.06305541.359375 11.3203125c0 6.25625287 5.06305541 11.3203125 11.3203125 11.3203125 2.19805777 0 4.3520211-.6454404 6.18089062-1.836036.5479853-.35672679.66757892-1.10866029.25342894-1.61460522l-.46454363-.56752196c-.3501537-.42775262-.96674556-.5325568-1.43206518-.2341205-1.34611297.86335642-2.92575303 1.33091271-4.53771075 1.33091271-4.63119462 0-8.39894153-3.76774691-8.39894153-8.39894153 0-4.63119462 3.76774691-8.39894153 8.39894153-8.39894153 4.57098699 0 8.39894153 2.63010115 8.39894153 7.30342742 0 1.7704421-.96281996 3.63993693-2.65525233 3.82028594-.79191976-.02072347-.77188098-.58687604-.61513117-1.37048815l1.06963259-5.5282381c.13082264-.67597785-.387036-1.30361614-1.07552098-1.30361614h-2.05322168c-.31385697-.00000685-.57771573.23558413-.61312273.54743753l-.00045647.00419947c-.67086545-.8171166-1.84630645-.99395083-2.73746153-.99395083-3.4043101 0-6.2914919 2.84075939-6.2914919 6.91360698 0 2.98084826 1.6791036 4.83258663 4.38205644 4.83258663 1.23172304 0 2.61868955-.71377309 3.42307079-1.74976427.43464522 1.55672556 1.85383811 1.55667991 3.22765845 1.55667991C21.11064897 16.95353736 23 13.68470583 23 10.2247984 23 4.00104577 17.97994352 0 11.6796875 0z"/>
    <mask id="mask-4" x="0" y="0" maskContentUnits="userSpaceOnUse" maskUnits="userSpaceOnUse">
      <rect width="23" height="23" x="0" y="0" fill="black"/>
      <use fill="white" xlink:href="#path-3"/>
    </mask>
    <path id="path-5" fill-rule="evenodd" d="M10.69007308 13.89614006c-1.01558722 0-1.64646641-.71313404-1.64646641-1.86105025 0-2.05376943 1.4049512-3.31981858 2.67624968-3.31981858 1.01755003 0 1.62505825.69569711 1.62505825 1.8610046 0 2.0568734-1.54627253 3.31986423-2.65484152 3.31986423z"/>
    <mask id="mask-6" x="0" y="0" maskContentUnits="userSpaceOnUse" maskUnits="userSpaceOnUse">
      <rect width="23" height="23" x="0" y="0" fill="black"/>
      <use fill="white" xlink:href="#path-5"/>
    </mask>
  </defs>
  <g>
    <use fill="none" xlink:href="#rect-1"/>
    <g mask="url(#mask-2)">
      <use fill-opacity="0" stroke="rgb(255,255,255)" stroke-linecap="butt" stroke-linejoin="miter" stroke-width="2" mask="url(#mask-4)" xlink:href="#path-3"/>
      <use fill-opacity="0" stroke="rgb(255,255,255)" stroke-linecap="butt" stroke-linejoin="miter" stroke-width="2" mask="url(#mask-6)" xlink:href="#path-5"/>
    </g>
  </g>
</svg>
