<svg xmlns="http://www.w3.org/2000/svg" xmlns:xlink="http://www.w3.org/1999/xlink" width="26" height="26" viewBox="0 0 26 26">
  <defs>
    <rect id="rect-1" width="26" height="26" x="0" y="0"/>
    <mask id="mask-2" maskContentUnits="userSpaceOnUse" maskUnits="userSpaceOnUse">
      <rect width="26" height="26" x="0" y="0" fill="black"/>
      <use fill="white" xlink:href="#rect-1"/>
    </mask>
  </defs>
  <g>
    <use fill="none" xlink:href="#rect-1"/>
    <g mask="url(#mask-2)">
      <path fill="rgb(255,255,255)" fill-rule="evenodd" d="M11.62890625 4.29029846c1.51205444 0 2.7421875 1.2301178 2.7421875 2.7421875s-1.23013306 2.7421875-2.7421875 2.7421875-2.7421875-1.2301178-2.7421875-2.7421875 1.23013306-2.7421875 2.7421875-2.7421875zm0 1.015625c-.95205688 0-1.7265625.77452088-1.7265625 1.7265625 0 .95204163.77450562 1.7265625 1.7265625 1.7265625s1.7265625-.77452087 1.7265625-1.7265625c0-.95204162-.77450562-1.7265625-1.7265625-1.7265625z"/>
      <path fill="rgb(255,255,255)" fill-rule="evenodd" d="M8.56091309 12.00315857c-.22634888.6964264-.71029663 1.26309204-1.36279297 1.59555054-.39126587.19937133-.81503296.30021667-1.24172974.3001709-.28494263 0-.5711975-.04493714-.85009766-.13552857-.69641113-.22633362-1.26306152-.71028137-1.59555053-1.36277771-.3324585-.6524353-.39089966-1.39535522-.16461182-2.0918274.22631836-.69641112.71026611-1.26307677 1.36276245-1.59555053.6524353-.3324585 1.3953247-.3909607 2.0918274-.16462707.69641113.22633361 1.26309204.71028137 1.59555053 1.36276245.3324585.6524353.39089966 1.39537048.16464234 2.09182739zm-4.1452942-.06362915c.20932007.4107666.56607056.7154541 1.0045166.8578949.43844605.1424408.90612794.10562133 1.31695557-.1036377.4107666-.20932007.7154541-.5660553.85791016-1.00450134.14248657-.43844605.10568237-.90614319-.1036377-1.3169098-.20932006-.41078185-.56607055-.71546935-1.0045166-.85791015-.1755371-.0570221-.35583496-.08535766-.53518676-.08535766-.26867676 0-.53543091.06347656-.7817688.18901062-.4107666.20932006-.7154541.5660553-.85791016 1.00450134-.14248657.43844604-.10568237.90614319.1036377 1.31690979z"/>
      <path fill="rgb(255,255,255)" fill-rule="evenodd" d="M8.11764526 20.56884766c-.55874633 0-1.122406-.16986084-1.60809326-.52268982-1.22317505-.88871765-1.4953003-2.60690308-.60668945-3.83007813.43048096-.59251404 1.06594849-.98194885 1.7893982-1.09651184.72351073-.1146698 1.4481201.05940247 2.04067992.48988342.59255982.4304657.98196412 1.06594849 1.09658814 1.78938294.1145935.72341919-.0593872 1.44812012-.48989868 2.04069519-.53585816.73753357-1.37332154 1.12931824-2.22198487 1.12931824zm-.26647949-4.44619751c-.45544433.07215881-.8555603.31732177-1.1265564.69041443-.5595703.77009582-.38824462 1.85189819.3819275 2.41145324.7701416.55955506 1.85186767.38816834 2.41143798-.38192749.55957032-.7701416.38821411-1.85188293-.38192749-2.41145325-.29812622-.21662902-.64953613-.3301239-1.0111084-.3301239-.09085083 0-.182312.00715638-.27377319.02163697z"/>
      <path fill="rgb(255,255,255)" fill-rule="evenodd" d="M16.7482605 20.04614258c-.48556519.3527832-1.04940796.52268982-1.6081543.52268982-.84875488 0-1.68603516-.39167786-2.22198486-1.12931824-.43045044-.59255981-.60449219-1.31732178-.48986817-2.04069519.11459351-.72337341.5039978-1.35890198 1.09655762-1.78938293.59255982-.4304657 1.31726074-.60444642 2.04071045-.48988343.72335815.114563 1.3588562.5039978 1.78936768 1.09651184.88867187 1.22317505.61654663 2.94136048-.60662842 3.83007813zm-1.34170532-3.9235077c-.45565796-.07220458-.91177369.03742982-1.28479004.3085022-.77017212.55950928-.9414978 1.6412964-.38198853 2.41145325.55950928.7701416 1.64129639.94148255 2.41143799.3819275.77017212-.55957032.9414978-1.64131165.38192749-2.41145325-.27102661-.37309266-.67111206-.61825562-1.12658691-.6904297z"/>
      <path fill="rgb(255,255,255)" fill-rule="evenodd" d="M14.86157227 9.9112854c.33242797-.65248108.89910888-1.13642883 1.59555053-1.36276245.69647217-.22618103 1.4393921-.16778565 2.0918274.16468811.65249633.33241272 1.13644409.89907837 1.36279296 1.59553528.22625733.69647217.16781617 1.43934631-.16464233 2.09184265-.33242798.65248108-.89907837 1.13642883-1.59555054 1.36276245-.27877807.09054565-.56515503.13552856-.85006714.13552856-.42678833 0-.85049438-.10084533-1.24176025-.30021667-.65249634-.33241272-1.1364441-.89907837-1.36276245-1.59555054-.22628784-.6964569-.16784668-1.43933105.16461182-2.09182739zm4.08425903.71133423c-.14242554-.43849182-.44711304-.79518128-.85787964-1.00450134-.2463684-.12553406-.51312256-.18901062-.78173828-.18901062-.17941284 0-.35964966.0282898-.53518677.08535766-.43850708.1424408-.79519653.4471283-1.0045166.85791016-.20932007.4107666-.24612427.87846374-.1036377 1.31690979.14245606.43849182.44714356.79518127.85791016 1.00450134.4107666.20932007.87841797.2460785 1.31689453.1036377.43850708-.1424408.79519654-.4471283 1.0045166-.8578949.20932007-.4107666.24612427-.87846375.1036377-1.3169098z"/>
      <path fill="rgb(255,0,0)" fill-rule="evenodd" d="M11.62890625 11.25860596c.96020508 0 1.74139404.7811737 1.74139404 1.74139404 0 .96022034-.78118896 1.74139404-1.74139404 1.74139404-.9602356 0-1.74139404-.7811737-1.74139404-1.74139404 0-.96022034.78115844-1.74139404 1.74139404-1.74139404zm0 1.015625c-.40020752 0-.72576904.32556152-.72576904.72576904s.32556152.72576904.72576904.72576904.72576904-.32556152.72576904-.72576904-.32556152-.72576904-.72576904-.72576904z"/>
      <path fill="rgb(255,255,255)" fill-rule="evenodd" d="M25.85126172 22.4328711c-.57423438-.57423438-1.33767969-.89044923-2.14977344-.89044923-.81204297 0-1.57548828.31626563-2.14972265.89044922-.76121094.76121094-1.77328125 1.18041016-2.8497422 1.18041016h-2.30643359c1.27120704-.57154297 2.44110547-1.37535938 3.45617188-2.39042578C22.04820312 19.02646484 23.2578125 16.1061875 23.2578125 13c0-2.27195312-.65538281-4.4730664-1.8953086-6.3653789-.15366406-.23460938-.4685078-.30016797-.7030664-.14645313-.23460937.15371484-.30016797.46850781-.14645312.7030664C21.64423828 8.91769532 22.2421875 10.92634767 22.2421875 13c0 5.8521836-4.76109766 10.61328125-10.61328125 10.61328125C5.77672265 23.61328125 1.015625 18.85218359 1.015625 13c0-5.8521836 4.76109766-10.61328125 10.61328125-10.61328125 2.07715625 0 4.08870313.59982813 5.81709375 1.7346875.23440625.15396875.54925.08871484.70321875-.14579297.15391797-.23445703.08866406-.54925-.14579297-.70321875-1.89444531-1.24383594-4.09875781-1.90130078-6.37451953-1.90130078-3.1061875 0-6.02646484 1.20960938-8.22285547 3.40605078C1.20966016 6.97358593 0 9.8938125 0 13c0 3.1061875 1.20960938 6.02646484 3.40605078 8.22290625 2.19639063 2.19639062 5.11666797 3.406 8.22285547 3.406h7.07311719c1.34778515 0 2.6148789-.52482422 3.56789062-1.47788672.38238282-.38238281.89080469-.59302344 1.43157422-.59302344.54076953 0 1.0491914.21058985 1.43157422.59302344.19830078.19830078.51984766.19830078.71819922 0 .19830078-.19830078.19830078-.51984766 0-.71814844z"/>
      <path fill="rgb(255,0,0)" fill-rule="evenodd" d="M19.49644531 5.64738281c.13355469 0 .26457032-.05382812.35902344-.14828125.09445313-.09496093.14878906-.22546875.14878906-.35902343 0-.1340625-.05433593-.26457032-.14878906-.35953125-.09445312-.09445313-.22546875-.14828125-.35902344-.14828125-.13355468 0-.26457031.05382812-.35902343.14828125-.09445313.09496093-.14878907.22546875-.14878907.35953125 0 .13355468.05433594.2645703.14878907.35902343.09445312.09445313.22546875.14828125.35902343.14828125z"/>
    </g>
  </g>
</svg>
