<svg xmlns="http://www.w3.org/2000/svg" xmlns:xlink="http://www.w3.org/1999/xlink" width="65" height="87" viewBox="0 0 65 87">
  <defs>
    <rect id="rect-1" width="65" height="87" x="0" y="0"/>
    <mask id="mask-2" maskContentUnits="userSpaceOnUse" maskUnits="userSpaceOnUse">
      <rect width="65" height="87" x="0" y="0" fill="black"/>
      <use fill="white" xlink:href="#rect-1"/>
    </mask>
  </defs>
  <g>
    <use fill="none" xlink:href="#rect-1"/>
    <g mask="url(#mask-2)">
      <path fill="rgb(0,48,135)" fill-rule="evenodd" d="M18.85677083 50.27988281c-.59244791 3.2625-2.9453125 18.47050781-3.63932291 22.76953125-.05078125.30585938-.16927084.42480469-.5078125.42480469H2.08203125c-1.28645833 0-2.21744792-1.12148438-2.04817708-2.36191406L9.953125 7.91835937c.25390625-1.63125 1.70963542-2.87167968 3.38541667-2.87167968 25.77994791 0 27.94661458-.62871094 34.53125 1.93710937 10.17317708 3.95917969 11.10416666 13.50878906 7.44791666 23.84003906-3.63932291 10.63710938-12.27213541 15.20800782-23.71484375 15.34394532-7.34635416.11894531-11.76432291-1.18945313-12.74609375 4.11210937z"/>
      <path fill="rgb(0,156,222)" fill-rule="evenodd" d="M64.47526042 41.56289063C61.68229167 55.75136719 52.3046875 60.64511719 40.28645833 60.64511719c-2.5390625 0-4.18098958-.39082031-4.95963541 3.34746094-2.62369792 16.55039062-2.31901042 14.59628906-2.4375 15.51386718-.28776042 1.46132813-1.48958334 2.53183594-2.9453125 2.53183594H19.1953125c-1.20182292 0-1.96354167-.98554687-1.79427083-2.19199219 0 0 .76171875-4.97871093 4.58723958-28.83574218.13541667-1.03652344.8125-1.59726563 1.84505208-1.59726563 9.140625 0 27.86197917 1.68222656 34.61588542-17.65488281.62630208-1.88613281 1.15104167-3.77226563 1.48958333-5.709375.08463542-.52675781.203125-.44179688.5078125-.22089844 4.80729167 3.60234375 5.12890625 9.82148438 4.02864584 15.73476563z"/>
    </g>
  </g>
</svg>
