<svg xmlns="http://www.w3.org/2000/svg" width="12.843" height="10.484" viewBox="0 0 12.843 10.484">
  <g>
    <path fill="rgb(255,0,0)" fill-opacity=".5" fill-rule="evenodd" d="M4.56289395 0h3.77697457c2.2076601 0 4 1.7923399 4 4v2.48417799c0 2.2076601-1.7923399 4-4 4H4.56289395c-2.2076601 0-4-1.7923399-4-4V4c0-2.2076601 1.7923399-4 4-4z"/>
    <path fill="rgb(204,21,21)" fill-rule="evenodd" d="M12.84258913 3.4582893l-.00000167 2.977728c-6.2e-7 1.10654434-.89837474 2.00491745-2.00491908 2.00491683-1.10654434-6.2e-7-2.00491745-.89837474-2.00491683-2.00491908l.00000167-2.97772801c6.2e-7-1.10654434.89837474-2.00491745 2.00491908-2.00491683 1.10654434 6.2e-7 2.00491745.89837474 2.00491683 2.00491908z"/>
    <path fill="rgb(204,21,21)" fill-rule="evenodd" d="M4.00983675 3.4582893l-.00000168 2.977728c-6.2e-7 1.10654434-.89837474 2.00491745-2.00491908 2.00491683C.89837165 8.4409335-.00000146 7.54255939-8.4e-7 6.43601505L8.4e-7 3.45828704c6.2e-7-1.10654434.89837473-2.00491745 2.00491908-2.00491683 1.10654434 6.2e-7 2.00491745.89837474 2.00491683 2.00491908z"/>
    <path fill="rgb(255,0,0)" fill-rule="evenodd" d="M2.6085586 6.39279146h7.68558805c1.12904885 0 2.04569326.91664441 2.04569326 2.04569326 0 1.12904885-.91664441 2.04569327-2.04569326 2.04569327H2.6085586c-1.12904885 0-2.04569327-.91664442-2.04569327-2.04569327 0-1.12904885.91664442-2.04569326 2.04569327-2.04569326z"/>
  </g>
</svg>
