<svg xmlns="http://www.w3.org/2000/svg" xmlns:xlink="http://www.w3.org/1999/xlink" width="25" height="21" viewBox="0 0 25 21">
  <defs>
    <rect id="rect-1" width="25" height="21" x="0" y="0"/>
    <mask id="mask-2" maskContentUnits="userSpaceOnUse" maskUnits="userSpaceOnUse">
      <rect width="25" height="21" x="0" y="0" fill="black"/>
      <use fill="white" xlink:href="#rect-1"/>
    </mask>
    <path id="path-3" fill-rule="evenodd" d="M20.00390625 7.83398438l-.3203125.58652343c-.1171875.21738282-.3671875.30761719-.58984375.22148438-.4609375-.18046875-.8828125-.43886719-1.25390625-.76289063-.1796875-.15585937-.2265625-.43066406-.109375-.64394531l.3203125-.58652344c-.26953125-.328125-.48046875-.70957031-.62109375-1.12382812h-.64453125c-.234375 0-.4375-.17636719-.4765625-.42246094-.078125-.4921875-.08203125-1.00898437 0-1.52167969.0390625-.24609375.2421875-.4265625.4765625-.4265625h.64453125c.140625-.41425781.3515625-.79570312.62109375-1.12382812l-.3203125-.58652344c-.1171875-.21328125-.07421875-.48808594.109375-.64394531.37109375-.32402344.796875-.58242188 1.25390625-.76289063.22265625-.08613281.47265625.00410157.58984375.22148438l.3203125.58652344c.41015625-.0779297.828125-.0779297 1.23828125 0L21.5625.25839844c.1171875-.21738281.3671875-.30761719.58984375-.22148438.4609375.18046875.8828125.43886719 1.25390625.76289063.1796875.15585937.2265625.43066406.109375.64394531l-.3203125.58652344c.26953125.328125.48046875.70957031.62109375 1.12382812h.64453125c.234375 0 .4375.17636719.4765625.42246094.078125.4921875.08203125 1.00898438 0 1.52167969-.0390625.24609375-.2421875.4265625-.4765625.4265625h-.64453125c-.140625.41425781-.3515625.79570312-.62109375 1.12382812l.3203125.58652344c.1171875.21328125.07421875.48808594-.109375.64394531-.37109375.32402344-.796875.58242188-1.25390625.76289063-.22265625.08613281-.47265625-.00410156-.58984375-.22148438l-.3203125-.58652343c-.40625.07792968-.828125.07792968-1.23828125 0z"/>
    <mask id="mask-4" x="0" y="0" maskContentUnits="userSpaceOnUse" maskUnits="userSpaceOnUse">
      <rect width="25" height="21" x="0" y="0" fill="black"/>
      <use fill="white" xlink:href="#path-3"/>
    </mask>
    <path id="path-5" fill-rule="evenodd" d="M19.59375 5.42226562c1.50390625 1.2140625 3.21875-.58652343 2.0625-2.165625-1.50390625-1.21816406-3.21875.58652344-2.0625 2.165625z"/>
    <mask id="mask-6" x="0" y="0" maskContentUnits="userSpaceOnUse" maskUnits="userSpaceOnUse">
      <rect width="25" height="21" x="0" y="0" fill="black"/>
      <use fill="white" xlink:href="#path-5"/>
    </mask>
    <path id="path-7" fill-rule="evenodd" d="M15.08984375 11.73457031l1.31640625.6890625c.39453125.23789063.56640625.74238281.41015625 1.19355469-.34765625.99257812-1.03125 1.903125-1.6640625 2.69882812-.2890625.36503907-.7890625.45527344-1.18359375.21738282l-1.13671875-.6890625c-.625.56191406-1.3515625 1.00898437-2.14453125 1.30019531v1.378125c0 .47578125-.32421875.8859375-.76953125.96796875-.9609375.17226562-1.96875.18046875-2.96484375 0-.44921875-.08203125-.78125-.48808594-.78125-.96796875v-1.378125c-.79296875-.2953125-1.51953125-.73828125-2.14453125-1.30019531l-1.13671875.68496093c-.390625.23789063-.89453125.14765625-1.18359375-.2173828-.6328125-.79570313-1.30078125-1.70625-1.6484375-2.69472657-.15625-.44707031.015625-.9515625.41015625-1.19355469l1.30078125-.6890625c-.15234375-.85722656-.15234375-1.7390625 0-2.60039062L.46875 8.44101562C.07421875 8.203125-.1015625 7.69863282.05859375 7.2515625c.34765625-.99257813 1.015625-1.903125 1.6484375-2.69882813.2890625-.36503906.7890625-.45527343 1.18359375-.2173828l1.13671875.6890625c.625-.56191407 1.3515625-1.00898438 2.14453125-1.30019532V2.34199219c0-.47167969.3203125-.88183594.765625-.96386719.9609375-.17226563 1.97265625-.18046875 2.96875-.00410156.44921875.08203125.78125.48808593.78125.96796875v1.378125c.79296875.2953125 1.51953125.73828125 2.14453125 1.30019531L13.96875 4.33125c.390625-.23789063.89453125-.14765625 1.18359375.21738281.6328125.79570313 1.296875 1.70625 1.64453125 2.69882813.15625.44707031.00390625.9515625-.390625 1.19355468l-1.31640625.6890625c.15234375.86132813.15234375 1.74316407 0 2.6044922z"/>
    <mask id="mask-8" x="0" y="0" maskContentUnits="userSpaceOnUse" maskUnits="userSpaceOnUse">
      <rect width="25" height="21" x="0" y="0" fill="black"/>
      <use fill="white" xlink:href="#path-7"/>
    </mask>
    <path id="path-9" fill-rule="evenodd" d="M10.49609375 12.6C12.80859375 9.44179688 9.375 5.83652344 6.3671875 8.26464844 4.0546875 11.42285156 7.48828125 15.028125 10.49609375 12.6z"/>
    <mask id="mask-10" x="0" y="0" maskContentUnits="userSpaceOnUse" maskUnits="userSpaceOnUse">
      <rect width="25" height="21" x="0" y="0" fill="black"/>
      <use fill="white" xlink:href="#path-9"/>
    </mask>
    <path id="path-11" fill-rule="evenodd" d="M20.00390625 20.09355469l-.3203125.58652344c-.1171875.2173828-.3671875.30761718-.58984375.22148437-.4609375-.18046875-.8828125-.43886719-1.25390625-.76289062-.1796875-.15585938-.2265625-.43066407-.109375-.64394532l.3203125-.58652343c-.26953125-.328125-.48046875-.70957032-.62109375-1.12382813h-.64453125c-.234375 0-.4375-.17636719-.4765625-.42246094-.078125-.4921875-.08203125-1.00898437 0-1.52167968.0390625-.24609375.2421875-.4265625.4765625-.4265625h.64453125c.140625-.41425782.3515625-.79570313.62109375-1.12382813l-.3203125-.58652344c-.1171875-.21328125-.07421875-.48808593.109375-.64394531.37109375-.32402344.796875-.58242187 1.25390625-.76289062.22265625-.08613282.47265625.00410156.58984375.22148437l.3203125.58652344c.41015625-.07792969.828125-.07792969 1.23828125 0l.3203125-.58652344c.1171875-.21738281.3671875-.30761719.58984375-.22148437.4609375.18046875.8828125.43886718 1.25390625.76289062.1796875.15585938.2265625.43066406.109375.64394531l-.3203125.58652344c.26953125.328125.48046875.70957031.62109375 1.12382813h.64453125c.234375 0 .4375.17636718.4765625.42246093.078125.4921875.08203125 1.00898438 0 1.52167969-.0390625.24609375-.2421875.4265625-.4765625.4265625h-.64453125c-.140625.41425781-.3515625.79570313-.62109375 1.12382813l.3203125.58652343c.1171875.21328125.07421875.48808594-.109375.64394532-.37109375.32402343-.796875.58242187-1.25390625.76289062-.22265625.08613281-.47265625-.00410156-.58984375-.22148437l-.3203125-.58652344c-.40625.07792969-.828125.07792969-1.23828125 0z"/>
    <mask id="mask-12" x="0" y="0" maskContentUnits="userSpaceOnUse" maskUnits="userSpaceOnUse">
      <rect width="25" height="21" x="0" y="0" fill="black"/>
      <use fill="white" xlink:href="#path-11"/>
    </mask>
    <path id="path-13" fill-rule="evenodd" d="M19.59375 17.67773437c1.50390625 1.2140625 3.21875-.58652343 2.0625-2.165625-1.50390625-1.2140625-3.21875.58652344-2.0625 2.165625z"/>
    <mask id="mask-14" x="0" y="0" maskContentUnits="userSpaceOnUse" maskUnits="userSpaceOnUse">
      <rect width="25" height="21" x="0" y="0" fill="black"/>
      <use fill="white" xlink:href="#path-13"/>
    </mask>
  </defs>
  <g>
    <use fill="none" xlink:href="#rect-1"/>
    <g mask="url(#mask-2)">
      <use fill-opacity="0" stroke="rgb(255,0,0)" stroke-linecap="butt" stroke-linejoin="miter" stroke-width="2" mask="url(#mask-4)" xlink:href="#path-3"/>
      <use fill-opacity="0" stroke="rgb(255,0,0)" stroke-linecap="butt" stroke-linejoin="miter" stroke-width="2" mask="url(#mask-6)" xlink:href="#path-5"/>
      <use fill-opacity="0" stroke="rgb(255,255,255)" stroke-linecap="butt" stroke-linejoin="miter" stroke-width="2" mask="url(#mask-8)" xlink:href="#path-7"/>
      <use fill-opacity="0" stroke="rgb(255,255,255)" stroke-linecap="butt" stroke-linejoin="miter" stroke-width="2" mask="url(#mask-10)" xlink:href="#path-9"/>
      <use fill-opacity="0" stroke="rgb(255,0,0)" stroke-linecap="butt" stroke-linejoin="miter" stroke-width="2" mask="url(#mask-12)" xlink:href="#path-11"/>
      <use fill-opacity="0" stroke="rgb(255,0,0)" stroke-linecap="butt" stroke-linejoin="miter" stroke-width="2" mask="url(#mask-14)" xlink:href="#path-13"/>
    </g>
  </g>
</svg>
